<svg width="14" height="12" viewBox="0 0 14 12" fill="none" xmlns="http://www.w3.org/2000/svg">
<path d="M1 3.15796C1 2.88182 1.22386 2.65796 1.5 2.65796H12.5004C12.7765 2.65796 13.0004 2.88182 13.0004 3.15796V5.37173C13.0004 5.59254 12.8555 5.7872 12.644 5.85064L7.14385 7.50069C7.05013 7.5288 6.95022 7.5288 6.85651 7.50069L1.35633 5.85064C1.14483 5.7872 1 5.59254 1 5.37173V3.15796Z" stroke="#333333"/>
<path d="M7 5.74295L7 4.71436" stroke="#333333" stroke-width="1.5" stroke-linecap="round" stroke-linejoin="round"/>
<path d="M1.5 5.74268L1.5 10.9C1.5 11.1761 1.72386 11.4 2 11.4H12.0003C12.2765 11.4 12.5003 11.1761 12.5003 10.9V5.74268" stroke="#333333"/>
<path d="M9.00012 2.65729V1.1001C9.00012 0.823955 8.77626 0.600098 8.50012 0.600098H5.5C5.22386 0.600098 5 0.823956 5 1.1001L5 2.65729" stroke="#333333"/>
</svg>
