<svg width="12" height="15" viewBox="0 0 12 15" fill="none" xmlns="http://www.w3.org/2000/svg">
<path fill-rule="evenodd" clip-rule="evenodd" d="M0 0.800049V1.80005H2.5V5.30005C2.5 7.23305 4.067 8.80005 6 8.80005C7.933 8.80005 9.5 7.23305 9.5 5.30005V1.80005H12V0.800049H0ZM3.5 1.80005H8.5V3.30005H3.5V1.80005ZM3.5 5.30005C3.5 6.68076 4.61929 7.80005 6 7.80005C7.38071 7.80005 8.5 6.68076 8.5 5.30005V4.30005H3.5V5.30005ZM11 15H10V13.5C9.99835 12.12 8.88003 11.0017 7.5 11H4.5C3.11997 11.0017 2.00165 12.12 2 13.5V15H1V13.5C1.0022 11.568 2.56792 10.0023 4.5 10H7.5C9.43208 10.0023 10.9978 11.568 11 13.5V15ZM0 3.50005C0 3.22391 0.223858 3.00005 0.5 3.00005C0.776142 3.00005 1 3.22391 1 3.50005V8.00005H0V3.50005Z" fill="#333333"/>
</svg>
