<svg width="28" height="28" viewBox="0 0 28 28" fill="none" xmlns="http://www.w3.org/2000/svg">
<path fill-rule="evenodd" clip-rule="evenodd" d="M0 14C0 21.732 6.26801 28 14 28C21.732 28 28 21.732 28 14C28 6.26801 21.732 0 14 0C6.26801 0 0 6.26801 0 14ZM2 14C2 7.37258 7.37258 2 14 2C20.6274 2 26 7.37258 26 14C26 20.6274 20.6274 26 14 26C7.37258 26 2 20.6274 2 14ZM15 20V11H11V13H13V20H10V22H18V20H15ZM12.5 6.5C12.5 5.67157 13.1716 5 14 5C14.8284 5 15.5 5.67157 15.5 6.5C15.5 7.32843 14.8284 8 14 8C13.1716 8 12.5 7.32843 12.5 6.5Z" fill="#333333"/>
</svg>
