<svg width="55" height="65" viewBox="0 0 55 65" fill="none" xmlns="http://www.w3.org/2000/svg">
<path d="M46.2131 22.9391V19.1319C46.2131 14.1683 44.2413 9.408 40.7315 5.8982C37.2217 2.38841 32.4614 0.416626 27.4978 0.416626C22.5342 0.416626 17.7739 2.38841 14.2641 5.8982C10.7543 9.408 8.78255 14.1683 8.78255 19.1319V22.9391C6.40133 23.9784 4.37455 25.689 2.95007 27.8618C1.52558 30.0346 0.765137 32.5754 0.761719 35.1736V51.2152C0.765964 54.7594 2.17574 58.1571 4.68182 60.6632C7.1879 63.1693 10.5856 64.579 14.1298 64.5833H40.8659C44.41 64.579 47.8078 63.1693 50.3139 60.6632C52.8199 58.1571 54.2297 54.7594 54.2339 51.2152V35.1736C54.2305 32.5754 53.4701 30.0346 52.0456 27.8618C50.6211 25.689 48.5943 23.9784 46.2131 22.9391ZM14.1298 19.1319C14.1298 15.5865 15.5382 12.1863 18.0452 9.67926C20.5522 7.17226 23.9524 5.76385 27.4978 5.76385C31.0433 5.76385 34.4435 7.17226 36.9505 9.67926C39.4575 12.1863 40.8659 15.5865 40.8659 19.1319V21.8055H14.1298V19.1319ZM48.8867 51.2152C48.8867 53.3425 48.0417 55.3826 46.5375 56.8868C45.0333 58.391 42.9931 59.2361 40.8659 59.2361H14.1298C12.0025 59.2361 9.96239 58.391 8.45819 56.8868C6.95399 55.3826 6.10894 53.3425 6.10894 51.2152V35.1736C6.10894 33.0463 6.95399 31.0062 8.45819 29.502C9.96239 27.9978 12.0025 27.1527 14.1298 27.1527H40.8659C42.9931 27.1527 45.0333 27.9978 46.5375 29.502C48.0417 31.0062 48.8867 33.0463 48.8867 35.1736V51.2152Z" fill="#E6002A"/>
</svg>
