<svg width="14" height="15" viewBox="0 0 14 15" fill="none" xmlns="http://www.w3.org/2000/svg">
<path fill-rule="evenodd" clip-rule="evenodd" d="M8.50001 6.5H12V7.5H8.50001V6.5ZM8.50001 4H14V5H8.50001V4ZM8.50001 1.5H14V2.5H8.50001V1.5ZM4.50001 15H2.50001C1.94841 14.9984 1.50166 14.5516 1.50001 14V10.5C0.948407 10.4984 0.501656 10.0516 0.500008 9.5V6.5C0.492606 6.09995 0.648263 5.71411 0.931188 5.43118C1.21411 5.14825 1.59996 4.9926 2.00001 5H5.00001C5.40006 4.9926 5.7859 5.14825 6.06883 5.43118C6.35175 5.71411 6.50741 6.09995 6.50001 6.5V9.5C6.49836 10.0516 6.05161 10.4984 5.50001 10.5V14C5.49836 14.5516 5.05161 14.9984 4.50001 15ZM2.00001 6C1.86508 5.99189 1.73313 6.04196 1.63755 6.13754C1.54197 6.23312 1.4919 6.36507 1.50001 6.5V9.5H2.50001V14H4.50001V9.5H5.50001V6.5C5.50812 6.36507 5.45805 6.23312 5.36247 6.13754C5.26688 6.04196 5.13494 5.99189 5.00001 6H2.00001ZM3.50001 4.5C2.39544 4.5 1.50001 3.60457 1.50001 2.5C1.50001 1.39543 2.39544 0.5 3.50001 0.5C4.60458 0.5 5.50001 1.39543 5.50001 2.5C5.49671 3.6032 4.60321 4.49671 3.50001 4.5ZM3.50001 1.5C2.94772 1.5 2.50001 1.94772 2.50001 2.5C2.50001 3.05228 2.94772 3.5 3.50001 3.5C4.05229 3.5 4.50001 3.05228 4.50001 2.5C4.49836 1.9484 4.05161 1.50165 3.50001 1.5Z" fill="#333333"/>
</svg>
